<svg id="svg" xmlns="http://www.w3.org/2000/svg" xmlns:xlink="http://www.w3.org/1999/xlink" width="400" height="404.0160642570281" viewBox="0, 0, 400,404.0160642570281"><g id="svgg"><path id="path0" d="M167.249 21.757 C 165.361 22.645,160.300 24.108,156.004 25.009 C 148.181 26.649,142.608 29.324,139.273 33.039 C 138.436 33.971,135.665 36.343,133.116 38.310 C 127.350 42.759,125.639 46.039,121.464 60.643 C 116.352 78.527,116.166 79.913,116.938 94.378 C 117.673 108.149,117.737 116.058,117.203 126.908 C 117.019 130.663,117.333 137.892,117.901 142.972 C 118.470 148.052,119.275 155.698,119.691 159.963 C 120.634 169.637,122.795 175.517,127.394 180.928 C 145.103 201.766,148.477 209.442,143.344 217.219 C 138.124 225.128,145.733 242.535,153.878 241.314 C 156.539 240.915,158.351 241.135,160.545 242.125 C 163.418 243.420,163.861 243.406,170.066 241.822 C 177.764 239.856,180.812 239.791,185.141 241.499 C 186.908 242.196,189.618 242.812,191.165 242.869 C 195.454 243.026,195.291 245.625,190.406 254.936 C 188.172 259.192,186.344 263.482,186.342 264.470 C 186.336 268.489,181.520 273.405,173.622 277.455 C 170.210 279.205,169.139 278.758,167.081 274.723 C 166.164 272.926,162.155 267.939,158.172 263.640 C 144.703 249.101,141.090 239.588,138.578 212.057 C 137.092 195.770,136.472 193.868,134.669 200.069 C 133.804 203.044,132.011 206.067,128.995 209.639 C 126.570 212.510,121.584 218.655,117.915 223.293 L 111.245 231.727 99.197 237.813 C 77.639 248.704,56.078 260.125,54.667 261.402 C 53.908 262.089,52.362 262.651,51.232 262.651 C 43.476 262.651,31.306 281.712,26.881 300.792 C 25.474 306.860,23.090 333.440,23.724 335.999 C 23.963 336.963,23.602 340.643,22.922 344.177 C 22.243 347.711,21.687 353.780,21.687 357.664 C 21.687 366.878,20.139 374.218,14.811 390.274 C 12.408 397.515,10.442 403.570,10.442 403.728 C 10.442 403.886,97.153 404.016,203.134 404.016 L 395.827 404.016 394.800 400.602 C 394.235 398.725,393.154 393.213,392.398 388.353 C 391.528 382.764,390.120 377.452,388.566 373.896 C 384.852 365.396,381.714 355.628,379.432 345.464 C 378.301 340.429,376.297 332.839,374.979 328.596 C 373.660 324.354,371.151 315.476,369.404 308.867 C 367.656 302.258,364.755 293.656,362.957 289.752 C 360.531 284.486,359.182 279.919,357.728 272.050 C 353.363 248.430,352.299 247.072,334.387 242.278 C 330.357 241.200,325.489 239.413,323.570 238.307 C 321.472 237.099,312.982 234.527,302.288 231.859 C 292.502 229.418,282.924 226.709,281.003 225.837 C 277.106 224.070,273.753 223.116,265.411 221.398 C 255.192 219.293,242.555 211.056,235.558 201.938 C 233.893 199.767,229.458 195.009,225.703 191.363 L 218.876 184.734 218.645 191.966 C 218.384 200.128,217.267 201.472,216.415 194.651 C 214.582 179.977,219.067 164.631,226.370 160.590 L 229.317 158.959 225.703 159.440 C 223.715 159.704,221.288 160.444,220.309 161.085 C 217.392 162.994,216.862 162.510,216.961 158.032 C 217.012 155.713,217.219 154.448,217.421 155.221 C 217.886 157.001,218.421 156.984,225.719 154.962 C 234.155 152.625,236.234 150.264,238.894 139.997 C 240.993 131.897,240.666 129.549,236.948 126.012 C 233.099 122.351,233.083 122.142,236.145 115.390 C 239.879 107.154,238.370 100.563,230.651 91.388 C 228.981 89.404,228.551 87.996,228.450 84.179 L 228.325 79.436 230.090 83.780 C 234.270 94.063,237.554 95.268,238.366 86.816 C 238.887 81.392,237.693 78.861,232.492 74.371 C 228.812 71.194,228.278 70.396,229.026 69.198 C 230.520 66.805,227.303 61.990,217.759 52.334 C 210.254 44.741,208.668 42.679,207.164 38.553 C 206.028 35.438,204.399 32.828,202.613 31.259 C 199.274 28.327,198.221 28.807,200.684 32.138 C 203.090 35.393,202.121 35.167,195.552 30.938 C 180.936 21.528,173.124 18.994,167.249 21.757 M185.899 54.220 C 201.771 58.253,211.245 63.948,211.245 69.458 C 211.245 72.388,210.015 72.578,206.058 70.258 C 204.076 69.097,201.812 68.298,201.026 68.483 C 199.939 68.739,200.125 68.966,201.807 69.436 C 204.567 70.208,204.608 71.124,201.944 72.520 C 199.968 73.556,199.861 73.959,199.644 81.181 L 199.416 88.755 203.122 92.262 C 207.402 96.312,204.982 96.626,199.104 92.782 C 193.315 88.997,188.118 88.712,177.414 91.591 C 168.482 93.994,168.272 94.362,166.569 110.603 L 165.227 123.392 160.649 125.168 C 155.415 127.197,152.842 129.563,152.162 132.970 L 151.689 135.341 158.198 136.798 C 163.148 137.906,166.000 139.130,170.105 141.907 C 178.480 147.573,178.756 148.006,173.494 147.234 C 161.349 145.453,147.828 148.974,140.763 155.757 C 137.344 159.040,138.180 159.261,152.008 158.727 C 162.038 158.340,165.618 158.471,167.470 159.294 L 169.880 160.365 167.894 161.431 C 166.744 162.048,162.685 162.584,158.255 162.704 C 154.046 162.817,150.151 162.942,149.598 162.981 C 148.195 163.080,148.342 166.662,149.799 167.871 C 150.503 168.456,155.254 169.159,161.245 169.565 C 167.077 169.960,172.993 170.826,174.987 171.575 L 178.488 172.890 175.715 175.664 C 173.383 177.996,172.120 178.548,167.796 179.125 C 164.966 179.504,160.122 180.560,157.031 181.473 C 145.621 184.843,140.849 183.137,135.450 173.760 C 130.355 164.912,129.491 163.855,127.350 163.855 C 124.976 163.855,123.695 160.575,123.695 154.499 C 123.695 150.539,123.842 150.201,125.557 150.201 C 131.983 150.201,142.972 143.547,142.972 139.657 C 142.972 137.824,141.923 137.718,140.518 139.410 C 137.192 143.419,133.899 143.681,127.236 140.467 C 119.634 136.801,119.991 138.327,120.676 112.450 C 121.948 64.448,145.034 43.837,185.899 54.220 M135.308 91.425 C 129.148 94.308,126.296 99.913,127.052 107.652 L 127.324 110.442 129.839 105.622 C 134.155 97.352,140.298 95.029,149.029 98.363 C 153.567 100.097,152.943 101.205,147.428 101.205 C 144.361 101.205,143.012 101.547,142.681 102.410 C 142.427 103.072,141.673 103.614,141.005 103.614 C 137.958 103.614,133.029 106.457,130.842 109.477 C 127.288 114.383,127.842 115.086,133.133 112.385 C 136.886 110.468,139.305 109.898,146.042 109.344 C 155.378 108.576,156.545 107.921,157.132 103.123 C 158.155 94.765,144.180 87.274,135.308 91.425 M189.399 96.705 C 190.593 97.322,192.292 98.639,193.175 99.631 L 194.779 101.435 188.398 100.871 C 179.829 100.113,178.766 99.438,182.792 97.315 C 186.605 95.305,186.678 95.298,189.399 96.705 M190.763 109.706 L 193.976 111.186 190.361 111.490 C 185.709 111.882,176.474 110.266,174.569 108.726 C 172.269 106.868,186.468 107.727,190.763 109.706 M176.822 114.118 C 177.711 114.594,180.850 115.075,183.797 115.187 C 196.489 115.670,202.583 122.357,198.503 131.325 C 195.238 138.503,191.466 138.436,186.655 131.116 C 184.837 128.350,181.493 124.125,179.225 121.726 C 176.956 119.328,175.073 117.073,175.039 116.715 C 175.005 116.357,174.856 115.432,174.708 114.659 C 174.394 113.018,174.646 112.953,176.822 114.118 M218.465 138.469 C 220.139 151.560,220.163 153.535,218.601 149.624 C 216.851 145.241,216.047 140.024,215.657 130.522 C 215.146 118.040,216.256 121.182,218.465 138.469 M233.735 137.549 C 233.254 145.487,231.345 148.968,227.120 149.611 C 223.857 150.108,224.041 150.406,224.991 146.163 C 226.000 141.656,227.309 140.141,227.309 143.481 C 227.309 146.431,228.003 147.275,229.444 146.079 C 230.124 145.515,230.522 143.427,230.522 140.424 C 230.522 136.020,232.148 130.925,233.555 130.923 C 233.875 130.922,233.956 133.904,233.735 137.549 " stroke="none" fill="#000000" fill-rule="evenodd"></path></g></svg>