<svg xmlns="http://www.w3.org/2000/svg" data-name="Layer 1" viewBox="0 0 32 32" id="narendra-modi"><path d="M27.99609,20.08789,20,17.26611v-.66955a10.784,10.784,0,0,0,2.42914-4.91687h.15094a1.29608,1.29608,0,0,0,1.27051-1.041L24.332,8.25a1.30935,1.30935,0,0,0-.28223-1.0752A1.28487,1.28487,0,0,0,23.05957,6.71h-.289a8.62949,8.62949,0,0,0-.62506-2.65723A6.61413,6.61413,0,0,0,11.57813,1.73828,7.31524,7.31524,0,0,0,9.38477,6.21777c-.02619.16584-.03449.32746-.05555.49219H8.94043a1.28487,1.28487,0,0,0-.99023.46484,1.31266,1.31266,0,0,0-.28028,1.084l.48145,2.38672a1.29309,1.29309,0,0,0,1.26855,1.03418h.08063a10.328,10.328,0,0,0,2.21918,4.59765c.08715.10053.18774.19471.28027.29218v.69031L4.00488,20.08789A4.49729,4.49729,0,0,0,1,24.33008V31.5a.49971.49971,0,0,0,.5.5h29a.49971.49971,0,0,0,.5-.5V24.33008A4.49773,4.49773,0,0,0,27.99609,20.08789ZM22.79492,9.03906c.02277-.4375.03-.8836.02454-1.3291h.24011a.2846.2846,0,0,1,.22168.10449.30379.30379,0,0,1,.06836.24707l-.47754,2.37305a.29605.29605,0,0,1-.24823.22913A16.195,16.195,0,0,0,22.79492,9.03906Zm-13.665,1.40235-.47754-2.3711a.30678.30678,0,0,1,.06641-.25586A.2846.2846,0,0,1,8.94043,7.71h.278a14.64386,14.64386,0,0,0,.09839,2.93244A.28743.28743,0,0,1,9.12988,10.44141ZM10.373,6.374A6.35687,6.35687,0,0,1,12.251,2.47852,5.64772,5.64772,0,0,1,16,1a5.68751,5.68751,0,0,1,5.22754,3.44727A8.05741,8.05741,0,0,1,21.799,7.19269l-.70929.37579A15.76284,15.76284,0,0,0,20.793,5.917a15.844,15.844,0,0,0-.626-1.98828,1.283,1.283,0,0,0-.7539-.73437,11.17514,11.17514,0,0,0-2.99317-.69629,8.86931,8.86931,0,0,0-3.87793.69433,1.2866,1.2866,0,0,0-.70019.708,15.30594,15.30594,0,0,0-.59961,1.84375,15.01457,15.01457,0,0,0-.34278,1.89905L10.275,7.24841C10.30359,6.95758,10.32672,6.6676,10.373,6.374Zm4.02832.88672H11.95111c.06787-.42694.153-.85107.25983-1.26855a14.09933,14.09933,0,0,1,.56054-1.72168.28564.28564,0,0,1,.15918-.15625,8.09308,8.09308,0,0,1,3.44239-.61817,10.18766,10.18766,0,0,1,2.69531.63672.28123.28123,0,0,1,.167.15918,14.95074,14.95074,0,0,1,.58594,1.86133c.0885.36359.16235.73383.223,1.10742H17.59863a1.1306,1.1306,0,0,0-1.051.70612,2.62449,2.62449,0,0,0-.57984-.08112,2.448,2.448,0,0,0-.53137.05207,1.124,1.124,0,0,0-.11316-.20539A1.14042,1.14042,0,0,0,14.40137,7.26074Zm.12793,1.17774-.37012,1.1123a.13414.13414,0,0,1-.12793.09082h-2.082a.13524.13524,0,0,1-.13574-.13476V8.42438c.001-.01349.00366-.0268.00476-.04029a.133.133,0,0,1,.131-.12335h2.45215a.13521.13521,0,0,1,.11035.05567A.12993.12993,0,0,1,14.5293,8.43848Zm2.959-.12207a.13521.13521,0,0,1,.11035-.05567h2.45215a.13319.13319,0,0,1,.13147.12457l.00427.0351V9.50684a.13524.13524,0,0,1-.13574.13476h-2.082a.13374.13374,0,0,1-.12793-.0918L17.4707,8.43848A.12993.12993,0,0,1,17.48828,8.31641Zm-7.28.07385.60523.38269v.73389a1.13654,1.13654,0,0,0,1.13574,1.13476h2.082a1.13258,1.13258,0,0,0,1.07715-.77539l.293-.87994a1.70843,1.70843,0,0,1,.55462-.10053,1.55671,1.55671,0,0,1,.66114.15631l.27441.82318a1.13219,1.13219,0,0,0,1.07715.77637h2.082a1.13654,1.13654,0,0,0,1.13574-1.13476V8.64832l.62244-.32978c-.00488.22315-.00092.44861-.01208.66876a15.19788,15.19788,0,0,1-.24341,1.97864L19.8252,12.99707a.13782.13782,0,0,1-.13379.05176.14533.14533,0,0,1-.11719-.084,2.84753,2.84753,0,0,0-1.53613-1.40136,5.81569,5.81569,0,0,0-4.15332.02734,2.81312,2.81312,0,0,0-1.47364,1.38574.14725.14725,0,0,1-.11621.082.13522.13522,0,0,1-.13183-.05078L10.405,10.98389A13.27551,13.27551,0,0,1,10.20825,8.39026Zm.85645,4.87952.34253.39428a1.15124,1.15124,0,0,0,.86816.39551,1.22437,1.22437,0,0,0,.14551-.00879,1.15861,1.15861,0,0,0,.89258-.64258,1.80264,1.80264,0,0,1,.9375-.88672,4.80555,4.80555,0,0,1,3.43359-.02246,1.84861,1.84861,0,0,1,.99609.915,1.14917,1.14917,0,0,0,.88965.62793,1.13558,1.13558,0,0,0,1.0166-.39648l.26593-.31256a8.19977,8.19977,0,0,1-2.52862,3.45416A3.79671,3.79671,0,0,1,13.627,16.7168a8.4421,8.4421,0,0,1-.77014-.69562l-.007-.00726c-.1278-.12891-.25738-.25629-.37622-.39283A8.56245,8.56245,0,0,1,11.0647,13.26978ZM15.5,31H8V28.5a.5.5,0,0,0-1,0V31H2V24.33008a3.49682,3.49682,0,0,1,2.33691-3.29883L12,18.32123v.6485a.49872.49872,0,0,0,.22168.415A6.76641,6.76641,0,0,0,15.5,20.5014ZM16,19.53027c-.00964,0-.01764.00495-.02716.0055A5.77255,5.77255,0,0,1,13,18.69531V17.49048c.02759.022.049.04407.07715.06616a4.76821,4.76821,0,0,0,5.8584.02149c.02258-.0174.04211-.03681.06445-.05439v1.17157a5.77255,5.77255,0,0,1-2.97284.84046C16.01764,19.53522,16.00964,19.53027,16,19.53027ZM30,31H25V28.5a.5.5,0,0,0-1,0V31H16.5V20.5014a6.76641,6.76641,0,0,0,3.27832-1.11663A.49872.49872,0,0,0,20,18.96973v-.64307l7.665,2.70459A3.4977,3.4977,0,0,1,30,24.33008ZM14.10449,14.98438a2.646,2.646,0,0,0,3.79.001l.56445-.57519a.49946.49946,0,0,0-.06933-.75977,2.37178,2.37178,0,0,0-2.4043-.16211,2.31362,2.31362,0,0,0-2.36719.15723.5.5,0,0,0-.07714.76465Zm1.41992-.6084a1.06188,1.06188,0,0,0,.97266-.00586,1.29,1.29,0,0,1,.72461-.127l-.041.042a1.68656,1.68656,0,0,1-2.3623-.001l-.042-.043A1.28415,1.28415,0,0,1,15.52441,14.376Z"></path></svg>